<svg viewBox="0 0 301.411 297.882" height="1125.855" width="1139.193" xmlns="http://www.w3.org/2000/svg"><defs><marker style="overflow:visible" id="b" refX="0" refY="0" orient="90" markerWidth="1" markerHeight="8" viewBox="0 0 1 8" preserveAspectRatio="xMidYMid"><path style="fill:none;stroke:context-stroke;stroke-width:1" d="M0 4v-8"/></marker><marker style="overflow:visible" id="a" refX="0" refY="0" orient="45" markerWidth="6.707" markerHeight="6.707" viewBox="0 0 6.707 6.707" preserveAspectRatio="xMidYMid"><path style="fill:none;stroke:context-stroke;stroke-width:1" d="m-3 3 6-6m0 6-6-6"/></marker></defs><g transform="translate(5.912 -286.584)"><g style="fill:#000;fill-opacity:1"><path style="fill:#000;fill-opacity:1;stroke:#fff;stroke-width:.264583;stroke-opacity:1" d="M131.844 131.402s6.557-13.957 20.178-14.798c13.62-.84 26.401-23.58 30.941-14.48 4.54 9.099 31.278 11.453 18.162 25.579-13.117 14.125-40.19 33.093-48.935 25.728-8.744-7.364-22.363-13.285-20.346-21.02" transform="translate(-520.264 -33.625) scale(3.98238)"/></g><g transform="translate(107.782 295.203)"><circle style="fill:#ccc;fill-opacity:1;stroke:#000;stroke-width:1;stroke-miterlimit:4;stroke-dasharray:none;stroke-opacity:1" cx="-84.706" cy="84.7" r="8.241"/><text xml:space="preserve" style="font-size:11.4428px;font-family:'Latin Modern Roman';-inkscape-font-specification:'Latin Modern Roman, ';fill:#ccc;fill-opacity:1;stroke:#000;stroke-width:2.70302;stroke-miterlimit:4;stroke-dasharray:none;stroke-opacity:1" x="-89.152" y="87.561"><tspan style="stroke-width:2.70302" x="-89.152" y="87.561">+</tspan></text></g><g transform="translate(111.525 266.978)"><circle style="fill:#ccc;fill-opacity:1;stroke:#000;stroke-width:1;stroke-miterlimit:4;stroke-dasharray:none;stroke-opacity:1" cx="-54.941" cy="84.7" r="8.241"/><text xml:space="preserve" style="font-size:11.0058px;font-family:'Latin Modern Roman';-inkscape-font-specification:'Latin Modern Roman, ';fill:#ccc;fill-opacity:1;stroke:#000;stroke-width:2.5998;stroke-miterlimit:4;stroke-dasharray:none;stroke-opacity:1" x="-59.216" y="87.452"><tspan style="stroke-width:2.5998" x="-59.216" y="87.452">=</tspan></text></g><g transform="translate(102.08 261.816)"><circle style="fill:#ccc;fill-opacity:1;stroke:#000;stroke-width:1;stroke-miterlimit:4;stroke-dasharray:none;stroke-opacity:1" cx="-84.706" cy="84.7" r="8.241"/><text xml:space="preserve" style="font-size:11.4428px;font-family:'Latin Modern Roman';-inkscape-font-specification:'Latin Modern Roman, ';fill:#ccc;fill-opacity:1;stroke:#000;stroke-width:2.70302;stroke-miterlimit:4;stroke-dasharray:none;stroke-opacity:1" x="-89.152" y="87.561"><tspan style="stroke-width:2.70302" x="-89.152" y="87.561">+</tspan></text></g><g transform="translate(146.447 232.779)"><circle style="fill:#ccc;fill-opacity:1;stroke:#000;stroke-width:1;stroke-miterlimit:4;stroke-dasharray:none;stroke-opacity:1" cx="-84.706" cy="84.7" r="8.241"/><text xml:space="preserve" style="font-size:11.4428px;font-family:'Latin Modern Roman';-inkscape-font-specification:'Latin Modern Roman, ';fill:#ccc;fill-opacity:1;stroke:#000;stroke-width:2.70302;stroke-miterlimit:4;stroke-dasharray:none;stroke-opacity:1" x="-89.152" y="87.561"><tspan style="stroke-width:2.70302" x="-89.152" y="87.561">+</tspan></text></g><g transform="translate(176.81 286.462)"><circle style="fill:#ccc;fill-opacity:1;stroke:#000;stroke-width:1;stroke-miterlimit:4;stroke-dasharray:none;stroke-opacity:1" cx="-84.706" cy="84.7" r="8.241"/><text xml:space="preserve" style="font-size:11.4428px;font-family:'Latin Modern Roman';-inkscape-font-specification:'Latin Modern Roman, ';fill:#ccc;fill-opacity:1;stroke:#000;stroke-width:2.70302;stroke-miterlimit:4;stroke-dasharray:none;stroke-opacity:1" x="-89.152" y="87.561"><tspan style="stroke-width:2.70302" x="-89.152" y="87.561">+</tspan></text></g><circle style="fill:none;fill-opacity:1;stroke:#000;stroke-width:1;stroke-miterlimit:4;stroke-dasharray:1,3;stroke-dashoffset:0;stroke-opacity:1" cx="56.584" cy="349.091" r="62.007"/><path style="fill:none;fill-opacity:1;stroke:#fff;stroke-width:1;stroke-miterlimit:4;stroke-dasharray:0,11;stroke-dashoffset:0;stroke-opacity:1;marker-start:url(#a);marker-mid:url(#marker48343);marker-end:url(#marker48343)" d="M126.342 571.765s19.037-6.473 33.298-14.173c14.26-7.7 32.966-23.106 51.98-34.182 19.014-11.076 32.266-27.372 45.81-38.44 11.708-9.57 23.767-18.702 23.767-23.558"/><path style="fill:none;fill-opacity:1;stroke:#fff;stroke-width:1;stroke-miterlimit:4;stroke-dasharray:0,11;stroke-dashoffset:0;stroke-opacity:1;marker-start:url(#b);marker-mid:url(#Stop);marker-end:url(#Stop)" d="M25.486 492.405s.499-9.778 4.18-12.463c3.683-2.685 5.831-16.904 12.322-21.556 6.49-4.651 17.323.265 25.747-5.636 8.425-5.9 22.451-7.406 31.936-13.838 9.484-6.432 15.988-9.533 25.66-15.779 9.67-6.245 19.216-12.217 28.199-17.558 8.983-5.34 17.404-10.05 24.825-13.768 7.421-3.719 13.843-6.447 18.829-7.825"/><text xml:space="preserve" style="font-size:16.9333px;font-family:'Latin Modern Roman';-inkscape-font-specification:'Latin Modern Roman, ';fill:none;stroke:#fff;stroke-width:1;stroke-dasharray:0,11" x="18.23" y="317.791"><tspan style="fill:#000;stroke-width:1" x="18.23" y="317.791">1</tspan></text><text xml:space="preserve" style="font-size:16.9333px;font-family:'Latin Modern Roman';-inkscape-font-specification:'Latin Modern Roman, ';fill:#000;stroke:#fff;stroke-width:1;stroke-dasharray:0,11" x="156.761" y="456.297"><tspan style="fill:#fff;stroke-width:1" x="156.761" y="456.297">3</tspan></text><text xml:space="preserve" style="font-size:16.9333px;font-family:'Latin Modern Roman';-inkscape-font-specification:'Latin Modern Roman, ';fill:#fff;stroke:#fff;stroke-width:1;stroke-dasharray:0,11" x="110.988" y="411.098"><tspan style="fill:#000;stroke-width:1" x="110.988" y="411.098">2</tspan></text></g></svg>